<mxfile host="app.diagrams.net" modified="2020-08-19T14:10:42.596Z" agent="5.0 (Windows NT 10.0; Win64; x64) AppleWebKit/537.36 (KHTML, like Gecko) Chrome/84.0.4147.125 Safari/537.36" etag="bbRY0clZgQk1RCoIDX0g" version="13.6.3" type="github">
  <diagram id="C5RBs43oDa-KdzZeNtuy" name="Page-1">
    <mxGraphModel dx="2249" dy="762" grid="1" gridSize="10" guides="1" tooltips="1" connect="1" arrows="1" fold="1" page="1" pageScale="1" pageWidth="827" pageHeight="1169" math="0" shadow="0">
      <root>
        <mxCell id="WIyWlLk6GJQsqaUBKTNV-0" />
        <mxCell id="WIyWlLk6GJQsqaUBKTNV-1" parent="WIyWlLk6GJQsqaUBKTNV-0" />
        <mxCell id="WIyWlLk6GJQsqaUBKTNV-2" value="" style="rounded=0;html=1;jettySize=auto;orthogonalLoop=1;fontSize=11;endArrow=block;endFill=0;endSize=8;strokeWidth=1;shadow=0;labelBackgroundColor=none;edgeStyle=orthogonalEdgeStyle;" parent="WIyWlLk6GJQsqaUBKTNV-1" source="WIyWlLk6GJQsqaUBKTNV-3" target="WIyWlLk6GJQsqaUBKTNV-6" edge="1">
          <mxGeometry relative="1" as="geometry" />
        </mxCell>
        <mxCell id="WIyWlLk6GJQsqaUBKTNV-3" value="Create Main Entry" style="rounded=1;whiteSpace=wrap;html=1;fontSize=12;glass=0;strokeWidth=1;shadow=0;" parent="WIyWlLk6GJQsqaUBKTNV-1" vertex="1">
          <mxGeometry x="-160" y="80" width="120" height="40" as="geometry" />
        </mxCell>
        <mxCell id="WIyWlLk6GJQsqaUBKTNV-5" value="No" style="edgeStyle=orthogonalEdgeStyle;rounded=0;html=1;jettySize=auto;orthogonalLoop=1;fontSize=11;endArrow=block;endFill=0;endSize=8;strokeWidth=1;shadow=0;labelBackgroundColor=none;" parent="WIyWlLk6GJQsqaUBKTNV-1" source="WIyWlLk6GJQsqaUBKTNV-6" target="WIyWlLk6GJQsqaUBKTNV-7" edge="1">
          <mxGeometry y="10" relative="1" as="geometry">
            <mxPoint as="offset" />
          </mxGeometry>
        </mxCell>
        <mxCell id="jUE7gzG1vOYIXaJJj4a1-34" style="edgeStyle=orthogonalEdgeStyle;rounded=0;orthogonalLoop=1;jettySize=auto;html=1;exitX=0.5;exitY=1;exitDx=0;exitDy=0;entryX=0.5;entryY=0;entryDx=0;entryDy=0;" parent="WIyWlLk6GJQsqaUBKTNV-1" source="WIyWlLk6GJQsqaUBKTNV-6" target="jUE7gzG1vOYIXaJJj4a1-31" edge="1">
          <mxGeometry relative="1" as="geometry" />
        </mxCell>
        <mxCell id="WIyWlLk6GJQsqaUBKTNV-6" value="Item exists" style="rhombus;whiteSpace=wrap;html=1;shadow=0;fontFamily=Helvetica;fontSize=12;align=center;strokeWidth=1;spacing=6;spacingTop=-4;" parent="WIyWlLk6GJQsqaUBKTNV-1" vertex="1">
          <mxGeometry x="-150" y="200" width="100" height="80" as="geometry" />
        </mxCell>
        <mxCell id="-Y1cWU9mAI_uuFXprH8Q-11" style="edgeStyle=orthogonalEdgeStyle;rounded=0;orthogonalLoop=1;jettySize=auto;html=1;exitX=0.5;exitY=1;exitDx=0;exitDy=0;entryX=0.5;entryY=0;entryDx=0;entryDy=0;" parent="WIyWlLk6GJQsqaUBKTNV-1" source="WIyWlLk6GJQsqaUBKTNV-7" target="jUE7gzG1vOYIXaJJj4a1-6" edge="1">
          <mxGeometry relative="1" as="geometry" />
        </mxCell>
        <mxCell id="WIyWlLk6GJQsqaUBKTNV-7" value="Create Item" style="rounded=1;whiteSpace=wrap;html=1;fontSize=12;glass=0;strokeWidth=1;shadow=0;" parent="WIyWlLk6GJQsqaUBKTNV-1" vertex="1">
          <mxGeometry x="230" y="220" width="120" height="40" as="geometry" />
        </mxCell>
        <mxCell id="jUE7gzG1vOYIXaJJj4a1-6" value="Log (Create)" style="rounded=1;whiteSpace=wrap;html=1;" parent="WIyWlLk6GJQsqaUBKTNV-1" vertex="1">
          <mxGeometry x="250" y="560" width="100" height="40" as="geometry" />
        </mxCell>
        <mxCell id="jUE7gzG1vOYIXaJJj4a1-13" value="" style="edgeStyle=orthogonalEdgeStyle;rounded=0;orthogonalLoop=1;jettySize=auto;html=1;" parent="WIyWlLk6GJQsqaUBKTNV-1" source="jUE7gzG1vOYIXaJJj4a1-11" target="jUE7gzG1vOYIXaJJj4a1-12" edge="1">
          <mxGeometry relative="1" as="geometry" />
        </mxCell>
        <mxCell id="jUE7gzG1vOYIXaJJj4a1-11" value="Update Main Entry" style="rounded=1;whiteSpace=wrap;html=1;" parent="WIyWlLk6GJQsqaUBKTNV-1" vertex="1">
          <mxGeometry x="673" y="90" width="120" height="60" as="geometry" />
        </mxCell>
        <mxCell id="jUE7gzG1vOYIXaJJj4a1-26" style="edgeStyle=orthogonalEdgeStyle;rounded=0;orthogonalLoop=1;jettySize=auto;html=1;exitX=0;exitY=0.5;exitDx=0;exitDy=0;entryX=1;entryY=0.5;entryDx=0;entryDy=0;" parent="WIyWlLk6GJQsqaUBKTNV-1" source="jUE7gzG1vOYIXaJJj4a1-12" target="jUE7gzG1vOYIXaJJj4a1-24" edge="1">
          <mxGeometry relative="1" as="geometry" />
        </mxCell>
        <mxCell id="-Y1cWU9mAI_uuFXprH8Q-6" style="edgeStyle=orthogonalEdgeStyle;rounded=0;orthogonalLoop=1;jettySize=auto;html=1;exitX=0.5;exitY=1;exitDx=0;exitDy=0;entryX=0.5;entryY=0;entryDx=0;entryDy=0;" parent="WIyWlLk6GJQsqaUBKTNV-1" source="jUE7gzG1vOYIXaJJj4a1-12" target="-Y1cWU9mAI_uuFXprH8Q-5" edge="1">
          <mxGeometry relative="1" as="geometry" />
        </mxCell>
        <mxCell id="-Y1cWU9mAI_uuFXprH8Q-8" style="edgeStyle=orthogonalEdgeStyle;rounded=0;orthogonalLoop=1;jettySize=auto;html=1;exitX=0.5;exitY=1;exitDx=0;exitDy=0;entryX=0.5;entryY=0;entryDx=0;entryDy=0;" parent="WIyWlLk6GJQsqaUBKTNV-1" source="jUE7gzG1vOYIXaJJj4a1-12" target="-Y1cWU9mAI_uuFXprH8Q-7" edge="1">
          <mxGeometry relative="1" as="geometry" />
        </mxCell>
        <mxCell id="jUE7gzG1vOYIXaJJj4a1-12" value="Item Name&lt;br&gt;&amp;nbsp;changed" style="rhombus;whiteSpace=wrap;html=1;" parent="WIyWlLk6GJQsqaUBKTNV-1" vertex="1">
          <mxGeometry x="680" y="200" width="106" height="80" as="geometry" />
        </mxCell>
        <mxCell id="jUE7gzG1vOYIXaJJj4a1-14" value="Yes&lt;br&gt;" style="text;html=1;align=center;verticalAlign=middle;resizable=0;points=[];autosize=1;" parent="WIyWlLk6GJQsqaUBKTNV-1" vertex="1">
          <mxGeometry x="-100" y="280" width="40" height="20" as="geometry" />
        </mxCell>
        <mxCell id="jUE7gzG1vOYIXaJJj4a1-17" value="Yes&lt;br&gt;" style="text;html=1;align=center;verticalAlign=middle;resizable=0;points=[];autosize=1;" parent="WIyWlLk6GJQsqaUBKTNV-1" vertex="1">
          <mxGeometry x="650" y="220" width="40" height="20" as="geometry" />
        </mxCell>
        <mxCell id="jUE7gzG1vOYIXaJJj4a1-20" value="No&lt;br&gt;" style="text;html=1;align=center;verticalAlign=middle;resizable=0;points=[];autosize=1;" parent="WIyWlLk6GJQsqaUBKTNV-1" vertex="1">
          <mxGeometry x="738" y="280" width="30" height="20" as="geometry" />
        </mxCell>
        <mxCell id="-Y1cWU9mAI_uuFXprH8Q-3" style="edgeStyle=orthogonalEdgeStyle;rounded=0;orthogonalLoop=1;jettySize=auto;html=1;exitX=0.5;exitY=1;exitDx=0;exitDy=0;entryX=0.5;entryY=0;entryDx=0;entryDy=0;" parent="WIyWlLk6GJQsqaUBKTNV-1" source="jUE7gzG1vOYIXaJJj4a1-24" target="-Y1cWU9mAI_uuFXprH8Q-2" edge="1">
          <mxGeometry relative="1" as="geometry" />
        </mxCell>
        <mxCell id="-Y1cWU9mAI_uuFXprH8Q-10" style="edgeStyle=orthogonalEdgeStyle;rounded=0;orthogonalLoop=1;jettySize=auto;html=1;exitX=0;exitY=0.5;exitDx=0;exitDy=0;entryX=1;entryY=0.5;entryDx=0;entryDy=0;" parent="WIyWlLk6GJQsqaUBKTNV-1" source="jUE7gzG1vOYIXaJJj4a1-24" target="WIyWlLk6GJQsqaUBKTNV-7" edge="1">
          <mxGeometry relative="1" as="geometry" />
        </mxCell>
        <mxCell id="jUE7gzG1vOYIXaJJj4a1-24" value="Item exists" style="rhombus;whiteSpace=wrap;html=1;" parent="WIyWlLk6GJQsqaUBKTNV-1" vertex="1">
          <mxGeometry x="500" y="200" width="110" height="80" as="geometry" />
        </mxCell>
        <mxCell id="jUE7gzG1vOYIXaJJj4a1-28" value="Yes" style="text;html=1;align=center;verticalAlign=middle;resizable=0;points=[];autosize=1;" parent="WIyWlLk6GJQsqaUBKTNV-1" vertex="1">
          <mxGeometry x="550" y="280" width="40" height="20" as="geometry" />
        </mxCell>
        <mxCell id="-Y1cWU9mAI_uuFXprH8Q-4" style="edgeStyle=orthogonalEdgeStyle;rounded=0;orthogonalLoop=1;jettySize=auto;html=1;exitX=0.5;exitY=1;exitDx=0;exitDy=0;" parent="WIyWlLk6GJQsqaUBKTNV-1" source="jUE7gzG1vOYIXaJJj4a1-31" target="-Y1cWU9mAI_uuFXprH8Q-0" edge="1">
          <mxGeometry relative="1" as="geometry" />
        </mxCell>
        <mxCell id="jUE7gzG1vOYIXaJJj4a1-31" value="Fill values" style="rounded=1;whiteSpace=wrap;html=1;" parent="WIyWlLk6GJQsqaUBKTNV-1" vertex="1">
          <mxGeometry x="-150" y="310" width="100" height="40" as="geometry" />
        </mxCell>
        <mxCell id="-Y1cWU9mAI_uuFXprH8Q-0" value="Update Item" style="rounded=1;whiteSpace=wrap;html=1;" parent="WIyWlLk6GJQsqaUBKTNV-1" vertex="1">
          <mxGeometry x="-250" y="400" width="100" height="50" as="geometry" />
        </mxCell>
        <mxCell id="-Y1cWU9mAI_uuFXprH8Q-2" value="Error Message/Fill Button" style="rounded=1;whiteSpace=wrap;html=1;" parent="WIyWlLk6GJQsqaUBKTNV-1" vertex="1">
          <mxGeometry x="500" y="320" width="110" height="50" as="geometry" />
        </mxCell>
        <mxCell id="-Y1cWU9mAI_uuFXprH8Q-5" value="Update Item" style="rounded=1;whiteSpace=wrap;html=1;" parent="WIyWlLk6GJQsqaUBKTNV-1" vertex="1">
          <mxGeometry x="683" y="340" width="100" height="40" as="geometry" />
        </mxCell>
        <mxCell id="-Y1cWU9mAI_uuFXprH8Q-13" style="edgeStyle=orthogonalEdgeStyle;rounded=0;orthogonalLoop=1;jettySize=auto;html=1;exitX=0.5;exitY=1;exitDx=0;exitDy=0;" parent="WIyWlLk6GJQsqaUBKTNV-1" source="-Y1cWU9mAI_uuFXprH8Q-7" target="-Y1cWU9mAI_uuFXprH8Q-12" edge="1">
          <mxGeometry relative="1" as="geometry" />
        </mxCell>
        <mxCell id="-Y1cWU9mAI_uuFXprH8Q-7" value="Update Entry" style="rounded=1;whiteSpace=wrap;html=1;" parent="WIyWlLk6GJQsqaUBKTNV-1" vertex="1">
          <mxGeometry x="800" y="340" width="90" height="40" as="geometry" />
        </mxCell>
        <mxCell id="-Y1cWU9mAI_uuFXprH8Q-1" value="No" style="text;html=1;align=center;verticalAlign=middle;resizable=0;points=[];autosize=1;" parent="WIyWlLk6GJQsqaUBKTNV-1" vertex="1">
          <mxGeometry x="470" y="220" width="30" height="20" as="geometry" />
        </mxCell>
        <mxCell id="-Y1cWU9mAI_uuFXprH8Q-12" value="Log (Update)" style="rounded=1;whiteSpace=wrap;html=1;" parent="WIyWlLk6GJQsqaUBKTNV-1" vertex="1">
          <mxGeometry x="590" y="600" width="83" height="40" as="geometry" />
        </mxCell>
        <mxCell id="sAp4QDLdOfrpxhQxemI7-2" style="edgeStyle=orthogonalEdgeStyle;rounded=0;orthogonalLoop=1;jettySize=auto;html=1;exitX=0.5;exitY=1;exitDx=0;exitDy=0;entryX=0.5;entryY=0;entryDx=0;entryDy=0;" edge="1" parent="WIyWlLk6GJQsqaUBKTNV-1" source="sAp4QDLdOfrpxhQxemI7-0" target="sAp4QDLdOfrpxhQxemI7-1">
          <mxGeometry relative="1" as="geometry" />
        </mxCell>
        <mxCell id="sAp4QDLdOfrpxhQxemI7-0" value="Update Keyword" style="rounded=1;whiteSpace=wrap;html=1;" vertex="1" parent="WIyWlLk6GJQsqaUBKTNV-1">
          <mxGeometry x="1150" y="90" width="120" height="60" as="geometry" />
        </mxCell>
        <mxCell id="sAp4QDLdOfrpxhQxemI7-4" style="edgeStyle=orthogonalEdgeStyle;rounded=0;orthogonalLoop=1;jettySize=auto;html=1;exitX=0.5;exitY=1;exitDx=0;exitDy=0;" edge="1" parent="WIyWlLk6GJQsqaUBKTNV-1" source="sAp4QDLdOfrpxhQxemI7-1" target="sAp4QDLdOfrpxhQxemI7-3">
          <mxGeometry relative="1" as="geometry" />
        </mxCell>
        <mxCell id="sAp4QDLdOfrpxhQxemI7-7" style="edgeStyle=orthogonalEdgeStyle;rounded=0;orthogonalLoop=1;jettySize=auto;html=1;exitX=1;exitY=0.5;exitDx=0;exitDy=0;" edge="1" parent="WIyWlLk6GJQsqaUBKTNV-1" source="sAp4QDLdOfrpxhQxemI7-1" target="sAp4QDLdOfrpxhQxemI7-6">
          <mxGeometry relative="1" as="geometry" />
        </mxCell>
        <mxCell id="sAp4QDLdOfrpxhQxemI7-1" value="Neue Keywords mehr als alte?" style="rhombus;whiteSpace=wrap;html=1;" vertex="1" parent="WIyWlLk6GJQsqaUBKTNV-1">
          <mxGeometry x="1145" y="180" width="115" height="140" as="geometry" />
        </mxCell>
        <mxCell id="sAp4QDLdOfrpxhQxemI7-3" value="Decrement alte&lt;br&gt;Incement neue" style="rounded=1;whiteSpace=wrap;html=1;" vertex="1" parent="WIyWlLk6GJQsqaUBKTNV-1">
          <mxGeometry x="1142.5" y="360" width="120" height="60" as="geometry" />
        </mxCell>
        <mxCell id="sAp4QDLdOfrpxhQxemI7-5" value="Ja" style="text;html=1;align=center;verticalAlign=middle;resizable=0;points=[];autosize=1;" vertex="1" parent="WIyWlLk6GJQsqaUBKTNV-1">
          <mxGeometry x="1200" y="330" width="30" height="20" as="geometry" />
        </mxCell>
        <mxCell id="sAp4QDLdOfrpxhQxemI7-6" value="" style="rounded=1;whiteSpace=wrap;html=1;" vertex="1" parent="WIyWlLk6GJQsqaUBKTNV-1">
          <mxGeometry x="1390" y="230" width="120" height="60" as="geometry" />
        </mxCell>
        <mxCell id="sAp4QDLdOfrpxhQxemI7-8" value="No" style="text;html=1;align=center;verticalAlign=middle;resizable=0;points=[];autosize=1;" vertex="1" parent="WIyWlLk6GJQsqaUBKTNV-1">
          <mxGeometry x="1265" y="220" width="30" height="20" as="geometry" />
        </mxCell>
        <mxCell id="sAp4QDLdOfrpxhQxemI7-9" value="Baum" style="text;html=1;align=center;verticalAlign=middle;resizable=0;points=[];autosize=1;" vertex="1" parent="WIyWlLk6GJQsqaUBKTNV-1">
          <mxGeometry x="1405" y="380" width="50" height="20" as="geometry" />
        </mxCell>
        <mxCell id="sAp4QDLdOfrpxhQxemI7-10" value="Tisch" style="text;html=1;align=center;verticalAlign=middle;resizable=0;points=[];autosize=1;" vertex="1" parent="WIyWlLk6GJQsqaUBKTNV-1">
          <mxGeometry x="1470" y="380" width="40" height="20" as="geometry" />
        </mxCell>
        <mxCell id="sAp4QDLdOfrpxhQxemI7-11" value="Baum" style="text;html=1;align=center;verticalAlign=middle;resizable=0;points=[];autosize=1;" vertex="1" parent="WIyWlLk6GJQsqaUBKTNV-1">
          <mxGeometry x="1405" y="450" width="50" height="20" as="geometry" />
        </mxCell>
      </root>
    </mxGraphModel>
  </diagram>
</mxfile>
